<svg width="79" height="54" viewBox="0 0 79 54" fill="none" xmlns="http://www.w3.org/2000/svg">
<g filter="url(#filter0_d_1_364)">
<rect x="8" y="6" width="63" height="32" rx="4" fill="black"/>
<rect x="34" y="38" width="8.48528" height="8.48528" transform="rotate(-45 34 38)" fill="black"/>
<path d="M18.1172 18.3457C18.9329 17.4297 20.0404 16.9717 21.4395 16.9717C22.8385 16.9717 23.946 17.4297 24.7617 18.3457C25.5775 19.2617 25.9854 20.5036 25.9854 22.0713C25.9854 23.639 25.5775 24.8809 24.7617 25.7969C23.946 26.7083 22.8385 27.1641 21.4395 27.1641C20.0404 27.1641 18.9329 26.7083 18.1172 25.7969C17.3014 24.8809 16.8936 23.639 16.8936 22.0713C16.8936 20.5036 17.3014 19.2617 18.1172 18.3457ZM23.832 19.1797C23.2441 18.4642 22.4466 18.1064 21.4395 18.1064C20.4323 18.1064 19.6325 18.4642 19.04 19.1797C18.4521 19.8906 18.1582 20.8545 18.1582 22.0713C18.1582 23.2835 18.4521 24.2474 19.04 24.9629C19.6325 25.6738 20.4323 26.0293 21.4395 26.0293C22.4466 26.0293 23.2441 25.6738 23.832 24.9629C24.4245 24.2474 24.7207 23.2835 24.7207 22.0713C24.7207 20.8545 24.4245 19.8906 23.832 19.1797ZM30.7842 19.7676C31.6956 19.7676 32.4294 20.1025 32.9854 20.7725C33.5459 21.4424 33.8262 22.3333 33.8262 23.4453C33.8262 24.5527 33.5482 25.4437 32.9922 26.1182C32.4362 26.7881 31.7093 27.123 30.8115 27.123C30.3102 27.123 29.8613 27.0091 29.4648 26.7812C29.0684 26.5534 28.763 26.2412 28.5488 25.8447H28.5215V29.3721H27.332V19.8906H28.46V21.0938H28.4873C28.7106 20.6836 29.0228 20.36 29.4238 20.123C29.8249 19.8861 30.2783 19.7676 30.7842 19.7676ZM30.5518 26.0771C31.1852 26.0771 31.6865 25.8402 32.0557 25.3662C32.4248 24.8923 32.6094 24.252 32.6094 23.4453C32.6094 22.6387 32.4248 21.9984 32.0557 21.5244C31.6865 21.0505 31.1852 20.8135 30.5518 20.8135C29.9411 20.8135 29.4489 21.055 29.0752 21.5381C28.7015 22.0212 28.5146 22.6569 28.5146 23.4453C28.5146 24.2383 28.7015 24.8763 29.0752 25.3594C29.4489 25.8379 29.9411 26.0771 30.5518 26.0771ZM35.4121 18.1748H36.6016V19.8906H37.9824V20.8682H36.6016V25.0928C36.6016 25.4163 36.6722 25.6556 36.8135 25.8105C36.9548 25.9609 37.1781 26.0361 37.4834 26.0361C37.6748 26.0361 37.8389 26.0247 37.9756 26.002V27C37.8206 27.0365 37.57 27.0547 37.2236 27.0547C36.5719 27.0547 36.1071 26.9089 35.8291 26.6172C35.5511 26.3255 35.4121 25.8379 35.4121 25.1543V20.8682H34.3525V19.8906H35.4121V18.1748ZM39.3154 27V19.8906H40.5049V27H39.3154ZM39.9102 18.6943C39.7096 18.6943 39.5365 18.6214 39.3906 18.4756C39.2448 18.3298 39.1719 18.1566 39.1719 17.9561C39.1719 17.751 39.2448 17.5778 39.3906 17.4365C39.5365 17.2907 39.7096 17.2178 39.9102 17.2178C40.1152 17.2178 40.2907 17.2907 40.4365 17.4365C40.5824 17.5778 40.6553 17.751 40.6553 17.9561C40.6553 18.1566 40.5824 18.3298 40.4365 18.4756C40.2907 18.6214 40.1152 18.6943 39.9102 18.6943ZM45.0576 27.123C44.0641 27.123 43.2666 26.7926 42.665 26.1318C42.0635 25.4665 41.7627 24.571 41.7627 23.4453C41.7627 22.3197 42.0635 21.4264 42.665 20.7656C43.2666 20.1003 44.0641 19.7676 45.0576 19.7676C46.0465 19.7676 46.8418 20.1003 47.4434 20.7656C48.0449 21.4264 48.3457 22.3197 48.3457 23.4453C48.3457 24.5664 48.0449 25.4596 47.4434 26.125C46.8418 26.7904 46.0465 27.123 45.0576 27.123ZM43.5332 25.3799C43.9115 25.8447 44.4196 26.0771 45.0576 26.0771C45.6956 26.0771 46.2015 25.847 46.5752 25.3867C46.9489 24.9219 47.1357 24.2747 47.1357 23.4453C47.1357 22.6159 46.9489 21.971 46.5752 21.5107C46.2015 21.0459 45.6956 20.8135 45.0576 20.8135C44.4196 20.8135 43.9115 21.0459 43.5332 21.5107C43.1595 21.9756 42.9727 22.6204 42.9727 23.4453C42.9727 24.2702 43.1595 24.915 43.5332 25.3799ZM49.5488 27V19.8906H50.6699V21.0254H50.6973C50.9023 20.6289 51.1963 20.3213 51.5791 20.1025C51.9619 19.8792 52.4199 19.7676 52.9531 19.7676C53.7279 19.7676 54.3317 20.0023 54.7646 20.4717C55.1976 20.9365 55.4141 21.5745 55.4141 22.3857V27H54.2246V22.5977C54.2246 22.0189 54.0879 21.5791 53.8145 21.2783C53.541 20.973 53.1331 20.8203 52.5908 20.8203C52.0303 20.8203 51.5814 21.0026 51.2441 21.3672C50.9069 21.7318 50.7383 22.2148 50.7383 22.8164V27H49.5488ZM56.8086 21.8525C56.8086 21.2419 57.0547 20.7428 57.5469 20.3555C58.0436 19.9635 58.6816 19.7676 59.4609 19.7676C60.1947 19.7676 60.8053 19.9635 61.293 20.3555C61.7806 20.7474 62.0381 21.2441 62.0654 21.8457H60.9307C60.8896 21.4993 60.7347 21.2282 60.4658 21.0322C60.2015 20.8363 59.8529 20.7383 59.4199 20.7383C58.987 20.7383 58.6383 20.8363 58.374 21.0322C58.1097 21.2236 57.9775 21.4766 57.9775 21.791C57.9775 22.2741 58.3717 22.6159 59.1602 22.8164L60.2607 23.083C60.9762 23.2653 61.4798 23.5023 61.7715 23.7939C62.0677 24.0811 62.2158 24.4867 62.2158 25.0107C62.2158 25.6305 61.9515 26.1387 61.4229 26.5352C60.8942 26.9271 60.2152 27.123 59.3857 27.123C58.611 27.123 57.9707 26.9316 57.4648 26.5488C56.9635 26.1615 56.681 25.651 56.6172 25.0176H57.8066C57.9388 25.7741 58.4902 26.1523 59.4609 26.1523C59.9395 26.1523 60.3177 26.0589 60.5957 25.8721C60.8783 25.6807 61.0195 25.4232 61.0195 25.0996C61.0195 24.8444 60.9352 24.6416 60.7666 24.4912C60.6025 24.3408 60.3223 24.2132 59.9258 24.1084L58.6748 23.7871C57.4307 23.4681 56.8086 22.8232 56.8086 21.8525Z" fill="white"/>
</g>
<defs>
<filter id="filter0_d_1_364" x="0" y="0" width="79" height="54" filterUnits="userSpaceOnUse" color-interpolation-filters="sRGB">
<feFlood flood-opacity="0" result="BackgroundImageFix"/>
<feColorMatrix in="SourceAlpha" type="matrix" values="0 0 0 0 0 0 0 0 0 0 0 0 0 0 0 0 0 0 127 0" result="hardAlpha"/>
<feOffset dy="2"/>
<feGaussianBlur stdDeviation="4"/>
<feColorMatrix type="matrix" values="0 0 0 0 0 0 0 0 0 0 0 0 0 0 0 0 0 0 0.15 0"/>
<feBlend mode="normal" in2="BackgroundImageFix" result="effect1_dropShadow_1_364"/>
<feBlend mode="normal" in="SourceGraphic" in2="effect1_dropShadow_1_364" result="shape"/>
</filter>
</defs>
</svg>
